<svg xmlns="http://www.w3.org/2000/svg" width="192" height="192" viewBox="0 0 192 192">
  <defs>
    <linearGradient id="g" x1="0" y1="0" x2="1" y2="1">
      <stop offset="0%" stop-color="#A855F7"/>
      <stop offset="100%" stop-color="#EC4899"/>
    </linearGradient>
  </defs>
  <rect width="192" height="192" rx="40" fill="#09090B"/>
  <path d="M96 32c-8 0-16 4-20 12-8-4-18 0-22 8-4 8-2 18 4 24-8 4-12 14-8 22s14 12 22 8c4 8 14 12 22 8s12-14 8-22c8-4 12-14 8-22s-14-12-22-8c-4-8-14-12-22-8z" fill="none" stroke="url(#g)" stroke-width="3"/>
  <path d="M96 48v96M64 80h64M64 112h64" stroke="url(#g)" stroke-width="4" stroke-linecap="round"/>
  <circle cx="96" cy="96" r="8" fill="#A855F7" opacity="0.3"/>
  <path d="M96 56C78 56 64 70 64 88c0 24 32 48 32 48s32-24 32-48c0-18-14-32-32-32z" fill="none" stroke="url(#g)" stroke-width="3" opacity="0.4"/>
  <circle cx="96" cy="88" r="12" fill="url(#g)" opacity="0.2"/>
  <path d="M96 80l4 8 8 2-6 6 2 8-8-4-8 4 2-8-6-6 8-2z" fill="url(#g)" opacity="0.6"/>
</svg>
