<svg xmlns="http://www.w3.org/2000/svg" width="512" height="512" viewBox="0 0 512 512">
  <defs>
    <linearGradient id="g" x1="0" y1="0" x2="1" y2="1">
      <stop offset="0%" stop-color="#A855F7"/>
      <stop offset="100%" stop-color="#EC4899"/>
    </linearGradient>
  </defs>
  <rect width="512" height="512" rx="80" fill="#09090B"/>
  <path d="M256 72c-20 0-40 10-50 30-20-10-45 0-55 20s-5 45 10 60c-20 10-30 35-20 55s35 30 55 20c10 20 35 30 55 20s30-35 20-55c20-10 30-35 20-55s-35-30-55-20c-10-20-35-30-55-20z" fill="none" stroke="url(#g)" stroke-width="6"/>
  <path d="M256 120v240M160 200h192M160 280h192" stroke="url(#g)" stroke-width="8" stroke-linecap="round"/>
</svg>
